<?xml version="1.0" encoding="UTF-8" standalone="no"?>
<!-- Created with Inkscape (http://www.inkscape.org/) -->
<svg xmlns:dc="http://purl.org/dc/elements/1.1/" xmlns:cc="http://creativecommons.org/ns#" xmlns:rdf="http://www.w3.org/1999/02/22-rdf-syntax-ns#" xmlns:svg="http://www.w3.org/2000/svg" xmlns="http://www.w3.org/2000/svg" xmlns:sodipodi="http://sodipodi.sourceforge.net/DTD/sodipodi-0.dtd" xmlns:inkscape="http://www.inkscape.org/namespaces/inkscape" width="50.340256mm" height="24.918667mm" viewBox="0 0 50.340256 24.918667" version="1.1" id="svg2453" inkscape:version="0.92.4 (5da689c313, 2019-01-14)" sodipodi:docname="Valberg logo 2012.svg">
  <defs id="defs2447"/>
  <sodipodi:namedview id="base" pagecolor="#ffffff" bordercolor="#666666" borderopacity="1.0" inkscape:pageopacity="0.0" inkscape:pageshadow="2" inkscape:zoom="2" inkscape:cx="34.720227" inkscape:cy="111.24349" inkscape:document-units="mm" inkscape:current-layer="layer1" showgrid="false" fit-margin-top="0" fit-margin-left="0" fit-margin-right="0" fit-margin-bottom="0" inkscape:window-width="1600" inkscape:window-height="837" inkscape:window-x="-8" inkscape:window-y="-8" inkscape:window-maximized="1"/>
  <metadata id="metadata2450">
    <rdf:RDF>
      <cc:Work rdf:about="">
        <dc:format>image/svg+xml</dc:format>
        <dc:type rdf:resource="http://purl.org/dc/dcmitype/StillImage"/>
        <dc:title/>
      </cc:Work>
    </rdf:RDF>
  </metadata>
  <g inkscape:label="Calque 1" inkscape:groupmode="layer" id="layer1" transform="translate(-149.89141,-119.47466)">
    <g id="g3877">
      <g id="g3843">
        <path inkscape:connector-curvature="0" id="path1411" style="fill:#000000;fill-opacity:1;fill-rule:nonzero;stroke:none;stroke-width:0.35277778" d="m 149.89141,129.79969 h 4.99992 v 0.39793 h -1.66158 l 2.71427,7.3787 h 0.0314 l 2.51142,-7.3787 h -1.69263 v -0.39793 h 3.70487 v 0.39793 h -1.59878 l -3.51014,10.30358 h -0.21026 l -3.88443,-10.30358 h -1.40406 z"/>
        <g id="g1421" transform="matrix(0.35277777,0,0,-0.35277777,163.79079,137.95835)" style="fill:#000000">
          <path d="M 0,0 V 2.388 C -2.727,2.285 -4.525,1.876 -5.395,1.161 -6.265,0.446 -6.699,-0.59 -6.699,-1.946 c 0,-0.987 0.261,-1.754 0.785,-2.299 0.523,-0.546 1.123,-0.818 1.802,-0.818 0.869,0 1.654,0.291 2.354,0.873 0.7,0.582 1.168,1.168 1.404,1.758 C -0.118,-1.843 0,-1.032 0,0 M 0,3.405 V 5.66 c 0,1.843 -0.151,3.051 -0.453,3.626 -0.303,0.575 -1.117,0.862 -2.443,0.862 -2.388,0 -3.582,-0.457 -3.582,-1.37 0,-0.266 0.099,-0.557 0.298,-0.874 0.199,-0.317 0.299,-0.689 0.299,-1.116 0,-0.605 -0.199,-1.065 -0.597,-1.382 C -6.876,5.089 -7.326,4.93 -7.827,4.93 c -0.649,0 -1.15,0.203 -1.503,0.609 -0.354,0.405 -0.531,0.88 -0.531,1.426 0,1.179 0.689,2.17 2.067,2.974 1.378,0.803 3.298,1.204 5.76,1.204 1.975,0 3.419,-0.228 4.333,-0.685 C 3.213,10.001 3.777,9.433 3.991,8.755 4.204,8.077 4.311,7.119 4.311,5.881 v -8.136 c 0,-1.194 0.085,-1.939 0.255,-2.233 0.169,-0.295 0.431,-0.442 0.785,-0.442 0.53,0 1.046,0.361 1.547,1.083 H 7.429 C 7.045,-5.999 5.793,-7.075 3.67,-7.075 c -2.049,0 -3.272,1.179 -3.67,3.537 -1.725,-2.358 -3.744,-3.537 -6.058,-3.537 -1.533,0 -2.757,0.417 -3.67,1.249 -0.914,0.833 -1.371,1.854 -1.371,3.062 0,3.759 3.699,5.815 11.099,6.169" style="fill:#000000;fill-opacity:1;fill-rule:nonzero;stroke:none" id="path1423" inkscape:connector-curvature="0"/>
        </g>
        <g id="g1425" transform="matrix(0.35277777,0,0,-0.35277777,168.33026,139.86148)" style="fill:#000000">
          <path d="m 0,0 v 27.394 h -3.162 v 1.128 h 3.029 c 2.034,0 3.516,0.11 4.444,0.331 V 0 H 7.429 V -1.128 H -3.162 V 0 Z" style="fill:#000000;fill-opacity:1;fill-rule:nonzero;stroke:none" id="path1427" inkscape:connector-curvature="0"/>
        </g>
        <g id="g1429" transform="matrix(0.35277777,0,0,-0.35277777,176.23933,140.04873)" style="fill:#000000">
          <path d="m 0,0 c 1.474,0 2.369,0.582 2.686,1.747 0.317,1.164 0.476,3.353 0.476,6.566 0,3.273 -0.166,5.428 -0.498,6.468 -0.331,1.039 -1.249,1.558 -2.753,1.558 -1.164,0 -2.188,-0.357 -3.073,-1.072 -0.884,-0.715 -1.5,-1.555 -1.846,-2.521 -0.346,-0.965 -0.519,-2.664 -0.519,-5.096 0,-2.373 0.563,-4.242 1.691,-5.605 C -2.708,0.682 -1.43,0 0,0 M -5.483,29.384 V 13.841 h 0.088 c 1.106,2.329 2.919,3.493 5.439,3.493 2.167,0 4.054,-0.917 5.66,-2.753 1.607,-1.835 2.41,-3.968 2.41,-6.4 C 8.114,5.793 7.326,3.641 5.749,1.725 4.171,-0.192 2.344,-1.15 0.265,-1.15 c -2.506,0 -4.392,1.349 -5.66,4.046 h -0.088 v -3.758 c -1.017,0.177 -2.403,0.265 -4.157,0.265 h -3.228 v 1.128 h 3.095 v 27.394 h -3.095 v 1.127 h 3.095 c 1.828,0 3.258,0.111 4.29,0.332" style="fill:#000000;fill-opacity:1;fill-rule:nonzero;stroke:none" id="path1431" inkscape:connector-curvature="0"/>
        </g>
        <g id="g1433" transform="matrix(0.35277777,0,0,-0.35277777,182.2296,136.37494)" style="fill:#000000">
          <path d="M 0,0 H 6.434 C 6.552,1.046 6.611,1.842 6.611,2.388 6.611,4.746 5.542,5.925 3.405,5.925 2.344,5.925 1.511,5.641 0.906,5.074 0.302,4.507 0,3.737 0,2.764 Z M 11.188,-0.995 H 0 c -0.103,-4.363 0.14,-7.05 0.73,-8.059 0.589,-1.01 1.643,-1.515 3.161,-1.515 3.125,0 5.24,1.814 6.346,5.439 h 0.951 C 10.701,-7.326 9.78,-8.947 8.424,-9.994 7.068,-11.04 5.557,-11.563 3.891,-11.563 c -2.373,0 -4.436,0.88 -6.19,2.642 -1.755,1.761 -2.632,3.976 -2.632,6.644 0,2.594 0.859,4.775 2.576,6.544 1.717,1.769 3.711,2.653 5.981,2.653 1.975,0 3.703,-0.7 5.185,-2.1 1.481,-1.401 2.273,-3.339 2.377,-5.815" style="fill:#000000;fill-opacity:1;fill-rule:nonzero;stroke:none" id="path1435" inkscape:connector-curvature="0"/>
        </g>
        <g id="g1437" transform="matrix(0.35277777,0,0,-0.35277777,188.26665,139.86148)" style="fill:#000000">
          <path d="m 0,0 v 15.123 h -3.582 v 1.128 h 3.626 c 1.857,0 3.273,0.095 4.245,0.287 v -4.179 h 0.089 c 1.031,2.786 2.557,4.179 4.577,4.179 0.884,0 1.595,-0.269 2.133,-0.807 0.538,-0.538 0.807,-1.19 0.807,-1.957 0,-0.707 -0.218,-1.279 -0.652,-1.713 -0.435,-0.435 -0.999,-0.652 -1.692,-0.652 -1.267,0 -1.901,0.633 -1.901,1.901 l 0.088,0.951 c 0,0.339 -0.154,0.508 -0.464,0.508 -0.486,0 -1.105,-0.656 -1.857,-1.968 C 4.665,11.489 4.289,9.485 4.289,6.788 V 0 H 7.96 V -1.128 H -3.582 V 0 Z" style="fill:#000000;fill-opacity:1;fill-rule:nonzero;stroke:none" id="path1439" inkscape:connector-curvature="0"/>
        </g>
        <g id="g1441" transform="matrix(0.35277777,0,0,-0.35277777,196.39415,134.3314)" style="fill:#000000">
          <path d="m 0,0 c -1.43,0 -2.314,-0.361 -2.653,-1.083 -0.339,-0.723 -0.509,-1.932 -0.509,-3.626 0,-2.447 0.159,-4.024 0.476,-4.732 0.316,-0.707 1.227,-1.061 2.73,-1.061 1.533,0 2.454,0.361 2.764,1.083 0.309,0.722 0.464,2.484 0.464,5.284 0,1.74 -0.276,2.864 -0.829,3.372 C 1.89,-0.254 1.076,0 0,0 m -3.339,-19.346 c -1.4,-0.884 -2.1,-2.196 -2.1,-3.936 0,-2.741 1.872,-4.112 5.616,-4.112 2.388,0 4.359,0.56 5.914,1.68 1.555,1.121 2.333,2.432 2.333,3.936 0,0.899 -0.391,1.592 -1.172,2.078 -0.782,0.487 -1.658,0.73 -2.631,0.73 -0.383,0 -1.246,-0.044 -2.587,-0.133 -1.341,-0.088 -2.336,-0.14 -2.985,-0.155 z m 9.463,17.621 c 0.87,-1.223 1.305,-2.432 1.305,-3.626 0,-2.019 -0.815,-3.548 -2.443,-4.587 -1.629,-1.04 -2.959,-1.559 -3.991,-1.559 l -1.106,-0.066 c -0.516,0 -1.216,0.04 -2.1,0.121 -0.884,0.081 -1.356,0.122 -1.415,0.122 -0.575,0 -1.246,-0.262 -2.012,-0.785 -0.767,-0.524 -1.15,-1.08 -1.15,-1.669 0,-0.517 0.199,-0.907 0.597,-1.172 0.398,-0.266 1.393,-0.398 2.985,-0.398 l 7.562,0.309 c 1.577,0 2.859,-0.501 3.847,-1.503 0.987,-1.002 1.481,-2.432 1.481,-4.29 0,-2.166 -0.892,-3.99 -2.675,-5.472 -1.784,-1.481 -4.253,-2.222 -7.407,-2.222 -2.447,0 -4.389,0.491 -5.826,1.471 -1.437,0.98 -2.156,2.133 -2.156,3.46 0,0.811 0.229,1.492 0.686,2.045 0.456,0.553 1.481,1.286 3.073,2.2 -2.447,0.59 -3.67,1.938 -3.67,4.046 0,2.83 1.525,4.429 4.577,4.798 v 0.088 c -2.359,1.12 -3.538,2.808 -3.538,5.063 0,1.828 0.73,3.365 2.189,4.61 1.459,1.246 3.176,1.869 5.152,1.869 2.151,0 3.949,-0.738 5.394,-2.211 1.061,1.473 2.241,2.211 3.538,2.211 0.501,0 0.936,-0.17 1.304,-0.509 0.368,-0.339 0.553,-0.804 0.553,-1.393 0,-0.516 -0.162,-0.925 -0.486,-1.227 -0.325,-0.302 -0.678,-0.453 -1.062,-0.453 -0.56,0 -0.976,0.258 -1.249,0.774 -0.273,0.515 -0.505,0.774 -0.696,0.774 -0.369,0 -0.789,-0.273 -1.261,-0.819" style="fill:#000000;fill-opacity:1;fill-rule:nonzero;stroke:none" id="path1443" inkscape:connector-curvature="0"/>
        </g>
      </g>
      <g id="g3802">
        <g id="g3783">
          <g id="g3749">
            <path inkscape:connector-curvature="0" id="path1459" style="fill:#000000;fill-opacity:1;fill-rule:nonzero;stroke:none;stroke-width:0.35277778" d="m 175.67153,126.39919 c -0.0257,0.0194 -0.0536,0.0321 -0.0536,0.0321 0,0 -0.0321,0.0268 -0.0321,0.0536 0,0.0272 0.0212,0.0487 0.0212,0.0487 0,0 0,0.0427 0.0325,0.0536 0.0321,0.0106 0.0374,-0.006 0.0536,-0.0268 0.0159,-0.0215 0.0483,-0.043 0.0642,-0.0483 0.0162,-0.006 0.0699,-0.0646 0.0377,-0.0914 -0.0321,-0.0268 -0.0804,-0.0536 -0.12347,-0.0215"/>
            <path inkscape:connector-curvature="0" id="path1463" style="fill:#000000;fill-opacity:1;fill-rule:nonzero;stroke:none;stroke-width:0.35277778" d="m 175.21521,126.40995 c 0.0268,-0.0109 0.043,-0.0483 0.0321,-0.0751 -0.0106,-0.0268 -0.0374,-0.0589 -0.0374,-0.0589 0,0 -0.0699,0.0268 -0.0536,0.0857 0.0159,0.0589 0.0321,0.0593 0.0589,0.0483 m 3.43535,-2.19004 c -0.12876,-0.0861 -0.2092,-0.1076 -0.2092,-0.1076 0,0 0.0162,-0.0374 0.0589,-0.0374 0.043,0 0.12876,0.005 0.17744,0.0374 0.048,0.0325 0.10196,0.0967 0.10725,0.0646 0,0 0.0173,-0.0967 -0.0511,-0.16898 -0.0684,-0.0727 -0.22155,-0.14923 -0.24166,-0.15699 -0.0201,-0.008 0,-0.0282 0,-0.0282 0,0 0.0928,-0.0483 0.12489,-0.0684 0.0324,-0.0201 -0.012,-0.0444 -0.0967,-0.0325 -0.0843,0.0123 -0.20108,0.0483 -0.24553,0.0684 -0.0441,0.0201 -0.0402,-0.048 0.0162,-0.0804 0.0564,-0.0321 0.14887,-0.11254 0.14887,-0.11254 0,0 -0.008,-0.0282 -0.0847,-0.0162 -0.0762,0.012 -0.21731,0.0847 -0.27763,0.13687 -0.0603,0.0522 -0.133,0.0522 -0.0885,-0.0402 0.0441,-0.0928 0.10054,-0.20144 0.10866,-0.22155 0.008,-0.0201 -0.0766,0.008 -0.12489,0.0564 -0.048,0.0483 -0.22542,0.22542 -0.25364,0.26176 -0.0282,0.036 -0.0483,0.0282 -0.036,-0.0201 0.012,-0.0483 0.008,-0.17321 -0.004,-0.19332 -0.012,-0.0201 -0.0603,0.0282 -0.0723,0.0646 -0.012,0.036 -0.12876,0.27763 -0.15311,0.35806 -0.024,0.0808 -0.0363,0.0363 -0.0363,-0.0522 0,-0.0885 -0.008,-0.28575 -0.012,-0.34219 -0.004,-0.0564 -0.0483,-0.0243 -0.0804,0.0483 -0.0321,0.0723 -0.12876,0.30586 -0.14887,0.3623 -0.0201,0.0564 -0.0363,0.0363 -0.0483,-0.0321 -0.012,-0.0684 -0.0445,-0.18944 -0.0483,-0.22966 -0.004,-0.0402 -0.0483,-0.0321 -0.0804,0.0684 -0.0325,0.10054 -0.0765,0.35842 -0.0847,0.41063 -0.008,0.0522 -0.0201,0.0282 -0.0402,-0.0162 -0.0201,-0.0441 -0.0603,-0.16475 -0.0886,-0.20532 -0.0282,-0.0402 -0.0363,-0.0321 -0.0526,0.0564 -0.0159,0.0885 -0.0321,0.34643 -0.036,0.39476 -0.004,0.0483 -0.0282,0.0483 -0.0603,0.008 -0.0325,-0.0402 -0.0765,-0.13652 -0.10477,-0.15275 -0.0282,-0.0162 -0.0402,-0.0123 -0.0402,0.0402 0,0.0522 -0.004,0.16122 -0.0363,0.24553 -0.0321,0.0847 -0.0967,0.23742 -0.0924,0.30198 0.004,0.0642 0.0321,0.10865 0.0522,0.0402 0.0201,-0.0684 0.0684,-0.14499 0.0843,-0.17321 0.0162,-0.0279 0.0765,-0.0603 0.0889,0.0201 0.012,0.0808 0.0483,0.2861 0.0483,0.2861 0,0 0.14464,-0.17321 0.18098,-0.14922 0.0363,0.0243 0.0402,0.21766 0.0162,0.26176 -0.0243,0.0444 0.12065,-0.0723 0.18909,-0.11677 0.0684,-0.0441 0.14076,-0.0642 0.14499,-0.0201 0.004,0.0445 -0.012,0.17321 -0.0321,0.22543 -0.0201,0.0526 -0.0483,0.14499 -0.0483,0.14499 0,0 0.17286,-0.0804 0.1972,-0.10054 0.024,-0.0201 0.10478,-0.0564 0.10478,-0.0321 0,0.024 0,0.12453 -0.0286,0.1771 -0.0279,0.0522 -0.14075,0.17286 -0.16086,0.18097 -0.0201,0.008 -0.012,0.0402 0.0603,0.0402 0.0727,0 0.12489,-0.008 0.17322,-0.0201 0.0483,-0.012 0.0808,-0.004 0.0402,0.0646 -0.0402,0.0684 -0.0762,0.13264 -0.10477,0.15275 -0.0279,0.0205 -0.012,0.0564 0.0444,0.0483 0.0564,-0.008 0.0847,0.0282 -0.004,0.0847 -0.0889,0.0564 -0.10478,0.10865 -0.12877,0.133 -0.0243,0.024 -0.0568,0.0483 -0.0568,0.0483 0,0 0.0243,0.0483 0.0688,0.0684 0.0441,0.0201 0.14076,0.0603 0.14076,0.0603 0,0 -0.0441,0.0402 -0.0885,0.0642 -0.0441,0.0243 -0.11677,0.0483 -0.16087,0.0727 -0.0444,0.024 -0.0363,0.0282 -0.0123,0.0483 0.0243,0.0201 0.0727,0.0843 0.0885,0.10477 0.0162,0.0201 0.012,0.0561 -0.0441,0.0561 -0.0565,0 -0.18133,0.0201 -0.21732,0.0282 -0.0363,0.008 -0.0526,0.012 -0.0325,0.0445 0.0201,0.0321 0.0201,0.17286 0,0.19297 -0.0201,0.0205 -0.11677,0.0205 -0.14076,0.0205 -0.0243,0 -0.0282,0.036 -0.0282,0.0642 0,0.0282 0.0162,0.0564 -0.0483,0.0646 -0.0646,0.008 -0.24166,0.0159 -0.27376,0 -0.0321,-0.0162 0.012,0.0603 0.012,0.0885 0,0.0282 0.0201,0.2092 -0.20109,0.13264 -0.22154,-0.0762 -0.23354,-0.20531 -0.22966,-0.22119 0.004,-0.0162 0.008,-0.0646 0.0445,-0.0522 0.0363,0.012 0.0603,0.036 0.11254,0.0441 0.0526,0.008 0.0684,0.0402 0.0847,0.0522 0.0159,0.0124 0.0483,0.0201 0.0684,-0.012 0.0201,-0.0321 -0.0162,-0.10865 -0.0162,-0.13299 0,-0.024 0.0162,-0.0885 0.0402,-0.10443 0.0243,-0.0162 0.0363,-0.0162 0.0607,0.0201 0.024,0.036 0.13688,0.0684 0.15664,0.0804 0.0205,0.012 0.10477,0.0684 0.0847,0.004 -0.0201,-0.0642 -0.0201,-0.11254 -0.008,-0.15699 0.0123,-0.0441 0.0483,-0.0282 0.0727,-0.012 0.024,0.0162 0.0684,0.0646 0.0684,0.0282 0,-0.0363 -0.0201,-0.133 -0.0444,-0.18521 -0.024,-0.0522 -0.0321,-0.0804 0.0201,-0.0765 0.0526,0.004 0.16933,0.0444 0.19755,0.0363 0.0279,-0.008 0.036,-0.0804 0.008,-0.10477 -0.0282,-0.024 -0.0843,-0.0765 -0.036,-0.0804 0.0483,-0.004 0.13688,0.0162 0.15275,-0.0402 0.0162,-0.0564 0.0162,-0.12876 -0.0642,-0.15311 -0.0808,-0.024 -0.10478,-0.0564 -0.0282,-0.0804 0.0765,-0.024 0.14887,-0.0564 0.17709,-0.0804 0.0282,-0.0243 0.0363,-0.0684 -0.0321,-0.0684 -0.0684,0 -0.14923,-0.0205 -0.10901,-0.0483 0.0406,-0.0282 0.18556,-0.133 0.21766,-0.14923 0.0321,-0.0159 -0.008,-0.0201 -0.0766,-0.0279 -0.0684,-0.008 -0.10865,0.012 -0.1651,-0.0526 -0.0564,-0.0642 0.0603,-0.10866 0.10054,-0.14499 0.0406,-0.036 0.10478,-0.12877 0.0526,-0.12877 -0.0526,0 -0.12912,0.0727 -0.19333,0.0727 -0.0646,0 -0.13687,-0.008 -0.0723,-0.0928 0.0642,-0.0847 0.10054,-0.133 0.12065,-0.20144 0.0201,-0.0681 -0.0282,-0.0642 -0.0847,-0.012 -0.0561,0.0526 -0.0967,0.0684 -0.0967,0.0684 0,0 -0.024,0.0646 -0.0843,0.0804 -0.0603,0.0162 -0.10089,0.0646 -0.10089,0.0646 0,0 0.0123,-0.16899 0.0607,-0.25365 0.0483,-0.0843 0.0201,-0.0924 -0.0201,-0.0603 -0.0406,0.0321 -0.1009,0.11254 -0.133,0.12065 -0.0321,0.008 -0.0402,-0.0201 -0.0444,-0.0885 -0.004,-0.0684 0,-0.12877 -0.0402,-0.1771 -0.0402,-0.0483 -0.0402,-0.008 -0.0522,0.0402 -0.012,0.0483 -0.0684,0.17709 -0.0967,0.19332 -0.0282,0.0162 -0.0522,-0.0201 -0.0522,-0.10477 0,-0.0843 -0.0123,-0.1651 -0.0363,-0.22543 -0.0243,-0.0603 -0.0483,0.0282 -0.0603,0.0684 -0.012,0.0402 -0.0321,0.16122 -0.0441,0.20532 -0.0123,0.0445 -0.008,0.0445 -0.0445,-0.0522 -0.0363,-0.0967 -0.0483,-0.15698 -0.0804,-0.20143 -0.0325,-0.0441 -0.0646,0.0162 -0.0646,0.0885 0,0.0727 0.004,0.1651 -0.008,0.21343 -0.012,0.0483 -0.0321,0.0321 -0.0684,-0.0282 -0.0363,-0.0603 -0.0765,-0.12453 -0.10054,-0.14887 -0.0243,-0.024 -0.0282,-0.0201 -0.0282,0.0402 0,0.0603 0.012,0.14887 -0.008,0.19332 -0.0201,0.0441 -0.0402,0.0564 -0.0804,0 -0.0402,-0.0564 -0.0684,-0.10054 -0.0684,-0.10054 0,0 0.0159,0.11677 0.008,0.16087 -0.008,0.0444 0.012,0.0847 -0.0564,0.0684 -0.0684,-0.0162 -0.10478,-0.0321 -0.10478,-0.0321 0,0 -0.012,0.0282 0.008,0.0684 0.0201,0.0402 0.0727,0.12488 0.0483,0.18098 -0.024,0.0564 -0.0565,0.13299 -0.0885,0.16933 -0.0321,0.036 -0.0483,0.0642 -0.0483,0.0642 0,0 0.008,0.133 0.004,0.19333 -0.004,0.0603 -0.0279,0.11289 -0.10442,0.10477 -0.0766,-0.008 -0.18133,0.024 -0.22543,0.14076 -0.0444,0.11677 -0.004,0.14111 0.0159,0.16122 0,0 0.006,-0.0861 0.0268,-0.13441 0.0215,-0.0483 0.0646,-0.10195 0.0914,-0.10195 0.0268,0 0.0914,-0.005 0.0914,0.0162 0,0.0215 -0.005,0.0751 0.0159,0.0914 0.0215,0.0159 0.0325,0.0589 0.0109,0.0857 -0.0215,0.0268 -0.0646,0.0967 -0.0914,0.11289 -0.0268,0.0159 -0.0699,0.0215 -0.0536,0.0427 0.0162,0.0215 0.12876,0.0861 0.16651,0.0914 0.0374,0.005 0.25753,0.0967 0.35419,0.11254 0.0967,0.0162 0.21484,0.0162 0.22013,0.1076 0.005,0.0914 -0.0646,0.12876 -0.0914,0.15557 -0.0268,0.0268 -0.0857,0.0751 -0.16087,0.0804 -0.0751,0.006 -0.0861,-0.0967 -0.11818,-0.13406 -0.0321,-0.0378 -0.0914,-0.043 -0.11818,-0.0483 -0.0268,-0.005 -0.0698,-0.0159 -0.10195,-0.0159 -0.0321,0 -0.0589,0.005 -0.0804,0.0264 -0.0215,0.0215 -0.0646,0.0593 -0.0861,0.0593 -0.0212,0 -0.0751,-0.0593 -0.0751,-0.11289 0,-0.0536 0.006,-0.0967 0.0324,-0.0967 0.0268,0 0.0427,0.0215 0.0642,0.043 0.0215,0.0215 0.0699,0.0377 0.0861,0.0377 0.0159,0 0.0321,-0.054 0.0483,-0.054 0.0159,0 0.11783,0.0378 0.15557,0.043 0.0374,0.005 0.10725,0.0268 0.12877,0.054 0.0215,0.0264 0.005,0.0857 0.0374,0.0963 0.0325,0.0109 0.0699,-0.005 0.10231,-0.0159 0.0321,-0.0109 0.0589,-0.0967 0.0159,-0.13441 -0.0427,-0.0374 -0.0857,-0.0646 -0.16616,-0.0646 -0.0808,0 -0.1397,0.0109 -0.18274,-0.005 -0.043,-0.0159 -0.0536,-0.0159 -0.0967,-0.0589 -0.0427,-0.043 -0.0374,-0.0536 -0.13405,-0.0646 -0.0967,-0.0106 -0.11289,0.0109 -0.11289,0.043 0,0.0321 -0.0695,0.20426 -0.13406,0.22542 -0.0645,0.0215 -0.23071,0.0377 -0.31679,0.043 -0.0857,0.005 -0.15028,0.0857 -0.2092,0.12347 -0.0593,0.0374 -0.0861,0.12348 -0.10724,0.1771 -0.0215,0.0536 -0.11289,0.0268 -0.15029,0.0321 -0.0377,0.005 -0.054,0.0325 -0.0967,0.0593 -0.043,0.0268 -0.0483,0.0536 -0.0914,0.0642 -0.043,0.0109 -0.0914,0.13441 -0.0699,0.15029 0.0215,0.0162 0.0751,-0.0106 0.10725,-0.0268 0.0324,-0.0159 0.11818,-0.0427 0.1397,-0.0268 0.0215,0.0162 0.0321,0.0162 0.0268,0.10196 -0.005,0.0861 -0.005,0.17709 0.0215,0.17709 0.0268,0 0.0589,-0.0589 0.11289,-0.13405 0.0536,-0.0751 0.11253,-0.0268 0.11253,0.0109 0,0.0374 -0.0106,0.16087 -0.005,0.19826 0.005,0.0377 0,0.0593 0.0268,0.0755 0.0268,0.0159 0.0642,-0.11289 0.0751,-0.1397 0.0106,-0.0268 0.0699,-0.12877 0.11289,-0.12877 0.0427,0 0.091,0.0751 0.12348,0.11783 0.0321,0.043 0.0589,0.11818 0.0857,0.0861 0.0268,-0.0321 0.0106,-0.1718 0.0699,-0.24165 0.0589,-0.0699 0.12347,-0.145 0.21449,-0.1771 0.0914,-0.0321 0.18803,-0.0698 0.26846,-0.0589 0.0804,0.0106 0.1397,-0.0751 0.18803,-0.0914 0.0483,-0.0162 0.0967,-0.043 0.091,0.0162 -0.005,0.0589 -0.048,0.19332 -0.0967,0.21978 -0.048,0.0272 -0.21449,0.0593 -0.28434,0.0861 -0.0699,0.0268 -0.24694,0.15558 -0.27905,0.27376 -0.0321,0.11818 -0.0593,0.26846 -0.0268,0.27376 0.0321,0.005 0.0751,-0.12348 0.15029,-0.16652 0.0751,-0.0427 0.15028,-0.10724 0.17709,-0.0857 0.0268,0.0215 0.0162,0.0967 0,0.15557 -0.0162,0.0593 0.005,0.21485 0.0268,0.21485 0.0215,0 0.0857,-0.0967 0.0967,-0.1397 0.0106,-0.043 0.0268,-0.10196 0.0698,-0.12348 0.0427,-0.0215 0.10195,-0.0589 0.10195,-0.0268 0,0.0321 -0.0109,0.22543 0.005,0.26317 0.0162,0.0374 0.0162,0.091 0.0483,0.0536 0.0321,-0.0378 0.0857,-0.12348 0.0967,-0.16651 0.0106,-0.043 0.0751,-0.16652 0.10724,-0.16652 0.0321,0 0.10196,0.0752 0.11818,0.13441 0.0162,0.0589 0.043,0.11254 0.0699,0.11254 0.0268,0 0.0642,-0.10195 0.0536,-0.15558 -0.0106,-0.0536 0.0106,-0.20919 0.0645,-0.31115 0.0536,-0.10195 0.10725,-0.15592 0.13406,-0.15592 0.0268,0 0.0268,0.0751 0.043,0.1344 0.0159,0.0589 0.0967,0.12877 0.15028,0.16616 0.0536,0.0378 0.11254,0.0483 0.11254,0.0162 0,-0.0321 -0.0646,-0.10724 -0.0536,-0.15557 0.0106,-0.0483 0.0162,-0.15029 0.0377,-0.16122 0.0212,-0.0106 0.091,0.15028 0.13935,0.15592 0.0483,0.005 0.14499,0.0695 0.20391,0.0536 0.0593,-0.0162 -0.0752,-0.043 -0.0963,-0.145 -0.0215,-0.10195 0,-0.28998 0.0321,-0.33831 0.0321,-0.0483 0.0536,0.0109 0.0536,0.0593 0,0.0483 0.0646,0.23071 0.15558,0.28434 0.0914,0.0536 0.12876,0.11289 0.12876,-0.0536 0,-0.16651 -0.0159,-0.30585 0.0268,-0.36512 0.043,-0.0589 0.043,-0.0268 0.0593,0.0268 0.0159,0.054 0.0804,0.20426 0.13935,0.21484 0.0593,0.0109 0.0967,0.0374 0.1023,-0.0967 0.005,-0.13405 -0.054,-0.2039 0.0268,-0.26846 0.0804,-0.0642 0.19862,-0.0536 0.29528,-0.15029 0.0963,-0.0963 0.16086,-0.18238 0.19297,-0.20919 0.0321,-0.0268 0.0914,-0.043 0.0914,0.0374 0,0.0808 0.005,0.13441 0.043,0.13441 0.0374,0 0.10724,-0.18803 0.0751,-0.25224 -0.0321,-0.0646 -0.0483,-0.13441 -0.0321,-0.16651 0.0159,-0.0321 0.0321,-0.0321 0.0533,-0.005 0.0215,0.0268 0.054,0.0967 0.0593,0.13935 0.005,0.043 0.0483,0.0215 0.0646,-0.0857 0.0159,-0.10724 0.005,-0.23071 -0.0378,-0.26317 -0.043,-0.0321 -0.0914,-0.12876 -0.0646,-0.12876 0.0268,0 0.0914,0.005 0.0914,0.043 0,0.0374 0.0483,0.10724 0.0804,0.13405 0.0324,0.0268 0.0751,0.0751 0.0808,-0.0321 0.005,-0.10725 -0.0765,-0.17992 -0.0928,-0.21731 -0.0162,-0.0378 -0.0646,-0.0508 -0.10054,-0.0953 -0.0275,-0.0335 -0.0914,-0.0794 -0.11289,-0.10619 -0.0212,-0.0268 -0.10724,-0.12876 -0.10724,-0.12876 0,0 0.0804,-0.0268 0.13405,0.0215 0.0536,0.0483 0.16651,0.15557 0.18274,0.17145 0.0159,0.0162 0.0857,0.0808 0.0857,0.0808 0,0 0.0536,-0.0483 0.0268,-0.11818 -0.0268,-0.0699 -0.0699,-0.11289 -0.10196,-0.15028 -0.0321,-0.0378 -0.0699,-0.10725 -0.10724,-0.1397 -0.0377,-0.0321 -0.10195,-0.0857 -0.12347,-0.12876 -0.0215,-0.043 -0.0268,-0.0589 -0.0268,-0.0589 0,0 0.0695,0.0268 0.10195,0.0483 0.0321,0.0215 0.0374,0.0106 0.0699,0.0483 0.0321,0.0374 0.0483,0.0483 0.0804,0.0751 0.0321,0.0268 0.0751,-0.0268 0.0589,-0.0536 -0.0159,-0.0268 -0.0699,-0.16651 -0.12348,-0.20955 -0.0536,-0.043 -0.13934,-0.15557 -0.13934,-0.18238 0,-0.0268 0.0751,-0.0109 0.0967,-0.0162 0.0212,-0.005 0.0427,-0.0106 0.0427,-0.0106 l 0.0914,-0.0751 c 0,0 -0.20955,0.0642 -0.36512,-0.0646 -0.15558,-0.12876 -0.22543,-0.381 -0.0589,-0.55809 0.16652,-0.17745 0.25224,-0.12876 0.32209,-0.0646 0.0699,0.0646 0.0321,0.24695 -0.043,0.30057 -0.0751,0.0536 -0.13405,0.0593 -0.15557,0.0109 -0.0215,-0.0483 -0.005,-0.0699 0.0109,-0.10195 0.0159,-0.0324 0.0159,-0.0914 0.0159,-0.0914 0,0 -0.11254,0.0321 -0.12877,0.16616 -0.0162,0.13441 0.091,0.28469 0.24695,0.30092 0.15557,0.0159 0.42404,-0.0378 0.48295,-0.2794 0.0593,-0.2413 -0.0159,-0.40252 -0.14499,-0.48824 m -2.14313,1.86125 c 0.0243,-0.012 0.0607,-0.008 0.13688,-0.012 0.0766,-0.004 0.0808,-0.0201 0.11289,-0.0607 0.0321,-0.0402 0.0642,-0.0561 0.0967,-0.12065 0.0321,-0.0642 -0.0325,-0.0804 -0.0847,-0.0885 -0.0522,-0.008 -0.12065,-0.012 -0.14888,-0.024 -0.0282,-0.0123 -0.0123,-0.0205 0.012,-0.0406 0.0243,-0.0201 0.0515,-0.019 0.0847,-0.0522 0.0402,-0.0402 0.10055,-0.0363 0.12877,-0.012 0.0282,0.024 0.0847,0.0684 0.12065,0.0843 0.0363,0.0162 0,0.0688 0,0.0928 0,0.024 -0.0201,0.0363 -0.0201,0.0723 0,0.0363 -0.0441,0.0765 -0.0804,0.0967 -0.0363,0.0201 -0.0847,0.0967 -0.17322,0.13688 -0.0885,0.0406 -0.10442,-0.012 -0.10442,-0.012 0,0 -0.0967,-0.008 -0.11677,-0.0159 -0.0201,-0.008 0.012,-0.0324 0.036,-0.0444 m -1.05868,-0.25365 c 0,0 0.0321,-0.0321 0.0967,0.0363 0.0646,0.0684 0.0363,0.12876 0.008,0.15699 -0.0282,0.0282 -0.0885,0.0603 -0.10089,0.0441 -0.012,-0.0159 0.004,-0.0603 0.0123,-0.11253 0.008,-0.0526 -0.0243,-0.0564 -0.0243,-0.0564 0,0 0,-0.0402 0.008,-0.0684 m 0.42686,0.69251 c -0.0363,0.0847 -0.13688,0.13687 -0.20144,0.14887 -0.0642,0.012 -0.20143,-0.0363 -0.23742,-0.0483 -0.0363,-0.012 -0.0162,-0.0723 -0.0162,-0.0847 0,-0.012 0.0363,-0.024 0.0804,-0.0603 0.0445,-0.036 0.0332,-0.055 0.0727,-0.0843 0.0321,-0.0243 0.0924,-0.0847 0.14887,-0.0928 0.0565,-0.008 0.0967,-0.004 0.133,0.0363 0.036,0.0402 0.0561,0.10054 0.0201,0.18521 m 0.1651,-0.41875 c -0.0162,0.012 -0.0406,0.008 -0.0928,0 -0.0522,-0.008 -0.024,-0.0483 -0.0201,-0.0804 0.004,-0.0325 0.0363,-0.0363 0.0565,-0.0445 0.0201,-0.008 0.0487,-0.0476 0.0765,-0.0646 0.0201,-0.012 0.0402,-0.0321 0.0681,-0.0279 0.0286,0.004 0.0889,0.0642 0.133,0.10865 0.0445,0.0441 0.0321,0.0766 -0.004,0.0967 -0.0363,0.0201 -0.0603,0.0321 -0.10054,0.0201 -0.0406,-0.012 -0.0286,-0.10865 -0.0286,-0.10865 l -0.0441,0.004 v 0.0444 c 0,0.0321 -0.0282,0.0402 -0.0441,0.0522"/>
            <path inkscape:connector-curvature="0" id="path1467" style="fill:#000000;fill-opacity:1;fill-rule:nonzero;stroke:none;stroke-width:0.35277778" d="m 177.59854,123.47368 c 0,0 0.0698,-0.0914 0.11818,-0.0646 0.0483,0.0272 0.0589,0.20426 0.0589,0.20426 0,0 0.145,-0.16122 0.26847,-0.31679 0.12347,-0.15558 0.27375,-0.30057 0.27375,-0.30057 0,0 0.0483,0.0699 0.0589,0.14499 0.0109,0.0751 0.0109,0.10725 0.0109,0.10725 0,0 0.42933,-0.67099 0.27376,-1.32574 0,0 -0.10725,0.68685 -0.71402,0.88018 0,0 0.0536,0.0536 0.13441,0.0589 0.0804,0.006 0.0967,0.0215 0.0967,0.0215 0,0 -0.0808,0.0483 -0.17181,0.1076 -0.0914,0.0589 -0.3436,0.21978 -0.40816,0.48295"/>
          </g>
          <g id="g3732">
            <path inkscape:connector-curvature="0" id="path1471" style="fill:#000000;fill-opacity:1;fill-rule:nonzero;stroke:none;stroke-width:0.35277778" d="m 173.24886,125.49375 0.16016,-0.18309 0.62406,1.00083 -0.14534,0.16651 -1.12748,-0.42474 0.1651,-0.18945 0.82691,0.35596 z"/>
            <path inkscape:connector-curvature="0" id="path1475" style="fill:#000000;fill-opacity:1;fill-rule:nonzero;stroke:none;stroke-width:0.35277778" d="m 173.63815,125.04813 0.17533,-0.20073 1.13806,0.41275 -0.16792,0.19226 -0.23072,-0.0914 -0.27128,0.3108 0.13123,0.20532 -0.16193,0.18521 -0.61277,-1.01424 m 0.53516,0.45367 0.18909,-0.21625 -0.43779,-0.17286 z"/>
            <path inkscape:connector-curvature="0" id="path1479" style="fill:#000000;fill-opacity:1;fill-rule:nonzero;stroke:none;stroke-width:0.35277778" d="m 174.16891,124.44075 0.15381,-0.17604 0.71931,0.58385 0.37183,-0.4258 0.15769,0.12806 -0.52563,0.60148 z"/>
            <path inkscape:connector-curvature="0" id="path1483" style="fill:#000000;fill-opacity:1;fill-rule:nonzero;stroke:none;stroke-width:0.35277778" d="m 175.44561,123.16175 c 0.06,0.004 0.11571,0.0275 0.16757,0.0695 0.0533,0.0434 0.0847,0.0914 0.0942,0.14393 0.005,0.0296 0.003,0.0646 -0.007,0.10548 0.0543,-0.0303 0.109,-0.042 0.16333,-0.0353 0.055,0.007 0.1076,0.0303 0.15805,0.0713 0.0519,0.0423 0.0875,0.0928 0.10689,0.15135 0.0134,0.0384 0.019,0.0772 0.0169,0.11641 -0.002,0.0444 -0.0155,0.0882 -0.0395,0.13159 -0.0243,0.043 -0.0554,0.0861 -0.0928,0.12912 l -0.33373,0.38205 -0.877,-0.7119 0.35807,-0.40958 c 0.0917,-0.10195 0.18697,-0.14993 0.28504,-0.14393 m -0.34537,0.50659 0.19473,0.15804 0.18027,-0.20637 c 0.0321,-0.0367 0.0512,-0.0723 0.0564,-0.10725 0.006,-0.0349 -0.0102,-0.0674 -0.0473,-0.0974 -0.0413,-0.0335 -0.0815,-0.0402 -0.12136,-0.0208 -0.0321,0.019 -0.066,0.0487 -0.10125,0.0893 z m 0.33937,0.27552 0.23742,0.19261 0.17921,-0.20531 c 0.0321,-0.0367 0.0519,-0.0695 0.0593,-0.0984 0.013,-0.0529 -0.008,-0.1016 -0.0624,-0.14569 -0.0466,-0.0378 -0.0938,-0.0455 -0.14252,-0.0236 -0.0272,0.012 -0.0568,0.0363 -0.0889,0.0723 z"/>
            <path inkscape:connector-curvature="0" id="path1487" style="fill:#000000;fill-opacity:1;fill-rule:nonzero;stroke:none;stroke-width:0.35277778" d="m 176.24652,122.36744 -0.39229,0.44909 0.18733,0.15169 0.36018,-0.41204 0.1517,0.12347 -0.35984,0.41204 0.22402,0.18204 0.41063,-0.46955 0.15734,0.1277 -0.56092,0.64206 -0.87665,-0.71155 0.54293,-0.62124 z"/>
            <path inkscape:connector-curvature="0" id="path1491" style="fill:#000000;fill-opacity:1;fill-rule:nonzero;stroke:none;stroke-width:0.35277778" d="m 176.72835,121.55552 c 0.0413,-0.0201 0.0847,-0.03 0.13088,-0.03 0.0378,0 0.0748,0.006 0.11077,0.0169 0.0363,0.0116 0.0716,0.031 0.10584,0.0593 0.0416,0.0335 0.0737,0.0769 0.0963,0.12947 0.0226,0.0529 0.0222,0.10936 -0.002,0.16898 0.0501,-0.0254 0.097,-0.0342 0.14111,-0.0261 0.0438,0.008 0.097,0.037 0.1584,0.0871 l 0.0593,0.048 c 0.0402,0.0328 0.0688,0.0533 0.0857,0.0617 0.0268,0.0138 0.0533,0.0162 0.079,0.008 l 0.0219,0.0176 -0.16968,0.19438 c -0.024,-0.0106 -0.043,-0.0198 -0.0568,-0.0272 -0.0286,-0.0155 -0.0561,-0.0335 -0.0822,-0.0543 l -0.0825,-0.0653 c -0.0568,-0.0448 -0.10265,-0.0656 -0.13723,-0.0624 -0.0346,0.003 -0.0737,0.0296 -0.11747,0.0801 l -0.15381,0.17569 0.34466,0.2801 -0.15063,0.17216 -0.87701,-0.71156 0.3556,-0.40675 c 0.0519,-0.0571 0.0984,-0.0956 0.1397,-0.11571 m -0.19438,0.47202 0.23742,0.19261 0.16898,-0.19332 c 0.0335,-0.0384 0.0536,-0.0709 0.061,-0.0981 0.0127,-0.0476 -0.006,-0.0914 -0.055,-0.13159 -0.0536,-0.0434 -0.10407,-0.0561 -0.15099,-0.0381 -0.0265,0.01 -0.0557,0.0332 -0.0882,0.0702 z"/>
            <path inkscape:connector-curvature="0" id="path1495" style="fill:#000000;fill-opacity:1;fill-rule:nonzero;stroke:none;stroke-width:0.35277778" d="m 177.74417,120.88556 c -0.072,-0.0356 -0.14287,-0.0374 -0.21202,-0.005 -0.0388,0.0184 -0.0734,0.0452 -0.10442,0.0808 -0.0593,0.0677 -0.0815,0.14534 -0.0663,0.23212 0.0152,0.0871 0.0765,0.17392 0.18344,0.26106 0.10795,0.0875 0.20532,0.12594 0.29139,0.11501 0.0861,-0.0109 0.15593,-0.0466 0.2085,-0.1069 0.0515,-0.0593 0.0762,-0.12206 0.0737,-0.18873 -0.002,-0.0667 -0.0286,-0.12771 -0.0787,-0.18309 l -0.16969,0.19473 -0.14675,-0.11889 0.30938,-0.35383 0.47096,0.38206 -0.10372,0.11853 -0.12594,-0.0699 c 0.0116,0.0674 0.0141,0.12171 0.007,0.16263 -0.0116,0.0706 -0.0466,0.14005 -0.10619,0.20814 -0.0981,0.11183 -0.21837,0.1711 -0.36124,0.17745 -0.14605,0.009 -0.28892,-0.0434 -0.42933,-0.15734 -0.14182,-0.11501 -0.22225,-0.24483 -0.24201,-0.38982 -0.0194,-0.14499 0.025,-0.27976 0.13335,-0.40393 0.0942,-0.1076 0.19827,-0.1711 0.31186,-0.1905 0.11395,-0.0198 0.21696,3.5e-4 0.31009,0.0593 l -0.15381,0.17604"/>
          </g>
          <g id="g3757">
            <path inkscape:connector-curvature="0" id="path1447" style="fill:#000000;fill-opacity:1;fill-rule:nonzero;stroke:none;stroke-width:0.35277778" d="m 177.68716,119.51114 -1.99002,2.20874 -0.5013,-0.51752 -0.49318,0.52317 -0.36971,-0.37042 -0.37006,0.37818 -0.18133,-0.20356 v -0.67274 h -0.23531 v -0.36619 h 0.32103 v -0.3369 h -0.32103 v -0.30939 h -0.29527 v 0.30939 h -0.32103 v 0.3369 h 0.32103 v 0.36619 h -0.21378 v 0.66816 l -0.84103,0.71684 0.006,3.11574 0.12665,0.8897 6.03815,-6.73629 z m 0.0554,0.12418 h 0.34713 l -5.67549,6.33165 -0.0878,-0.61383 -0.006,-3.054 0.84102,-0.71684 v -0.60114 h 0.21414 v -0.61453 h -0.32138 v -0.0889 h 0.32138 v -0.30939 h 0.0469 v 0.30939 h 0.32102 v 0.0889 h -0.32102 v 0.61453 h 0.23565 v 0.59585 l 0.30092,0.3376 0.37536,-0.38311 0.37147,0.37183 0.49142,-0.52141 0.50342,0.51929 z"/>
            <path inkscape:connector-curvature="0" id="path1503" style="fill:#000000;fill-opacity:1;fill-rule:nonzero;stroke:none;stroke-width:0.35277778" d="m 173.28718,127.44775 0.01,0.16827 5.76122,-6.67384 -0.009,-0.16828 z"/>
          </g>
        </g>
        <path inkscape:connector-curvature="0" id="path1507" style="fill:#000000;fill-opacity:1;fill-rule:nonzero;stroke:none;stroke-width:0.35277778" d="m 179.06405,119.47466 h -6.92856 l -0.001,6.04308 0.002,0.0145 c 0.11078,0.65299 0.37077,1.26471 0.77294,1.75224 0.32067,0.38806 0.7306,0.71826 1.2192,0.98178 0.8262,0.44521 1.58538,0.54434 1.61749,0.54857 l 0.0289,0.004 0.0286,-0.006 c 0.7179,-0.1471 1.34549,-0.4131 1.86513,-0.79092 0.4184,-0.3041 0.7673,-0.67981 1.03717,-1.11725 0.46038,-0.74542 0.53164,-1.4418 0.53446,-1.46967 l 7e-4,-0.009 v -5.95101 h -0.17709 m -0.0575,0.21096 v 5.77462 c -0.01,0.0737 -0.096,0.67698 -0.50836,1.33773 -0.25505,0.40887 -0.58384,0.76059 -0.97719,1.04493 -0.48683,0.35137 -1.07597,0.60113 -1.75084,0.7433 -0.14746,-0.0233 -0.81985,-0.14499 -1.52647,-0.5281 -0.46178,-0.25048 -0.84772,-0.56233 -1.14758,-0.9271 -0.37007,-0.4498 -0.60995,-0.98461 -0.71473,-1.58892 0,-0.0342 0.001,-5.51285 0.002,-5.85646 z"/>
      </g>
    </g>
  </g>
</svg>